<svg width="147" height="46" viewBox="0 0 147 46" fill="none" xmlns="http://www.w3.org/2000/svg">
<path fill-rule="evenodd" clip-rule="evenodd" d="M43.3024 22.7984C43.3024 34.5839 33.7484 44.1379 21.9629 44.1379C10.1774 44.1379 0.623413 34.5839 0.623412 22.7984C0.623412 11.0129 10.1774 1.45887 21.9629 1.45887C33.7484 1.45887 43.3024 11.0129 43.3024 22.7984ZM33.6113 22.935C33.6113 29.1784 28.5501 34.2397 22.3066 34.2397C16.0632 34.2397 11.0019 29.1784 11.0019 22.935C11.0019 16.6916 16.0632 11.6303 22.3066 11.6303C28.5501 11.6303 33.6113 16.6916 33.6113 22.935ZM60.2923 1.61406C58.6355 1.61406 57.2923 2.95721 57.2923 4.61406L57.2923 41.4028C57.2923 43.0596 58.6355 44.4028 60.2923 44.4028L68.145 44.4028C69.8019 44.4028 71.145 43.0596 71.145 41.4028L71.145 4.61406C71.145 2.95721 69.8019 1.61406 68.145 1.61406L60.2923 1.61406ZM112.076 44.6942L145.264 25.5331C147.264 24.3784 147.264 21.4916 145.264 20.3369L112.076 1.17576C110.076 0.0210562 107.576 1.46443 107.576 3.77383L107.576 42.0961C107.576 44.4055 110.076 45.8489 112.076 44.6942ZM78.2211 4.61402C78.2211 2.95717 79.5642 1.61402 81.2211 1.61402L89.0738 1.61402C90.7306 1.61402 92.0738 2.95717 92.0738 4.61402L92.0738 41.4027C92.0738 43.0596 90.7306 44.4027 89.0738 44.4027L81.2211 44.4027C79.5642 44.4027 78.2211 43.0596 78.2211 41.4027L78.2211 4.61402Z" fill="url(#paint0_linear)"/>
<defs>
<linearGradient id="paint0_linear" x1="0.623411" y1="22.794" x2="122.39" y2="50.8995" gradientUnits="userSpaceOnUse">
<stop stop-color="#63E1E5"/>
<stop offset="1" stop-color="#5C55D5"/>
</linearGradient>
</defs>
</svg>
