<svg id="Camada_1" data-name="Camada 1" xmlns="http://www.w3.org/2000/svg" xmlns:xlink="http://www.w3.org/1999/xlink" viewBox="0 0 174.56 190.89"><defs><style>.cls-1,.cls-2,.cls-3,.cls-4,.cls-5,.cls-6,.cls-7{fill:none;stroke-linecap:round;}.cls-1,.cls-2,.cls-3,.cls-4,.cls-5{stroke-miterlimit:10;stroke-width:4.78px;}.cls-1{stroke:url(#New_Gradient_Swatch);}.cls-2{stroke:url(#New_Gradient_Swatch-2);}.cls-3{stroke:url(#New_Gradient_Swatch-3);}.cls-4{stroke:url(#New_Gradient_Swatch-4);}.cls-5{stroke:url(#New_Gradient_Swatch-5);}.cls-6,.cls-7{stroke-linejoin:round;stroke-width:5px;}.cls-6{stroke:url(#New_Gradient_Swatch-6);}.cls-7{stroke:url(#New_Gradient_Swatch-7);}</style><linearGradient id="New_Gradient_Swatch" x1="64.57" y1="69.02" x2="110.44" y2="69.02" gradientUnits="userSpaceOnUse"><stop offset="0" stop-color="#5bd2ff"/><stop offset="1" stop-color="#89ddb9"/></linearGradient><linearGradient id="New_Gradient_Swatch-2" x1="55.44" y1="82.44" x2="119.11" y2="82.44" xlink:href="#New_Gradient_Swatch"/><linearGradient id="New_Gradient_Swatch-3" x1="48.14" y1="95.83" x2="126.42" y2="95.83" xlink:href="#New_Gradient_Swatch"/><linearGradient id="New_Gradient_Swatch-4" x1="55.44" y1="109.12" x2="117.74" y2="109.12" xlink:href="#New_Gradient_Swatch"/><linearGradient id="New_Gradient_Swatch-5" x1="63.66" y1="122.42" x2="109.98" y2="122.42" xlink:href="#New_Gradient_Swatch"/><linearGradient id="New_Gradient_Swatch-6" x1="0" y1="95.25" x2="138.22" y2="95.25" xlink:href="#New_Gradient_Swatch"/><linearGradient id="New_Gradient_Swatch-7" x1="36.34" y1="95.64" x2="174.56" y2="95.64" xlink:href="#New_Gradient_Swatch"/></defs><title>logo</title><polyline class="cls-1" points="66.96 69.02 75.02 69.02 108.05 69.02"/><polyline class="cls-2" points="57.83 82.44 84.15 82.44 116.72 82.44"/><polyline class="cls-3" points="50.53 95.83 92.37 95.83 124.03 95.83"/><polyline class="cls-4" points="57.83 109.12 98.76 109.12 115.35 109.12"/><polyline class="cls-5" points="66.05 122.42 103.78 122.42 107.59 122.42"/><polyline class="cls-6" points="79.76 173.33 69.25 188 2.5 95.64 69.25 2.5 135.72 95.25 95.92 150.78"/><polyline class="cls-7" points="96.77 15.2 105.59 2.89 172.06 95.64 105.59 188.39 38.84 96.03 77.72 41.78"/></svg>